<svg viewBox="0 0 512 512" xmlns="http://www.w3.org/2000/svg">
  <defs>
    <linearGradient id="cBg" x1="0" y1="0" x2="1" y2="1">
      <stop offset="0%" stop-color="#00C6FB"/>
      <stop offset="100%" stop-color="#005BEA"/>
    </linearGradient>
  </defs>
  <rect x="20" y="20" width="472" height="472" rx="96" fill="url(#cBg)"/>
  <!-- Speech bubble -->
  <path d="M256 100 C140 100 60 170 60 256 C60 326 108 384 180 406 L170 450 L228 424 C236 426 246 428 256 428 C370 428 452 358 452 272 C452 178 368 100 256 100Z" fill="white"/>
  <!-- Eyes -->
  <ellipse cx="210" cy="248" rx="18" ry="22" fill="#222"/>
  <ellipse cx="302" cy="248" rx="18" ry="22" fill="#222"/>
  <ellipse cx="216" cy="240" rx="8" ry="10" fill="white"/>
  <ellipse cx="308" cy="240" rx="8" ry="10" fill="white"/>
  <!-- O mouth (surprised) -->
  <ellipse cx="256" cy="300" rx="18" ry="14" fill="#222"/>
</svg>